<svg width="135" height="40" viewBox="0 0 135 40" fill="none" xmlns="http://www.w3.org/2000/svg">
<path d="M46.462 26.1415C44.734 26.1415 43.384 25.7215 42.412 24.8815C41.44 24.0295 40.924 22.8235 40.864 21.2635C40.852 20.9155 40.846 20.3635 40.846 19.6075C40.846 18.8515 40.852 18.2995 40.864 17.9515C40.924 16.4275 41.446 15.2515 42.43 14.4235C43.426 13.5955 44.77 13.1815 46.462 13.1815C47.602 13.1815 48.592 13.3675 49.432 13.7395C50.284 14.1115 50.932 14.5855 51.376 15.1615C51.832 15.7375 52.072 16.3315 52.096 16.9435C52.096 17.0515 52.054 17.1415 51.97 17.2135C51.898 17.2855 51.808 17.3215 51.7 17.3215H49.072C48.952 17.3215 48.856 17.3035 48.784 17.2675C48.712 17.2315 48.652 17.1655 48.604 17.0695C48.448 16.7215 48.202 16.4215 47.866 16.1695C47.53 15.9055 47.062 15.7735 46.462 15.7735C45.034 15.7735 44.284 16.5295 44.212 18.0415C44.2 18.3775 44.194 18.8995 44.194 19.6075C44.194 20.3035 44.2 20.8255 44.212 21.1735C44.284 22.7575 45.052 23.5495 46.516 23.5495C47.224 23.5495 47.788 23.3695 48.208 23.0095C48.64 22.6375 48.856 22.0735 48.856 21.3175V20.9755H47.164C47.032 20.9755 46.924 20.9335 46.84 20.8495C46.756 20.7535 46.714 20.6395 46.714 20.5075V19.1755C46.714 19.0435 46.756 18.9355 46.84 18.8515C46.924 18.7555 47.032 18.7075 47.164 18.7075H51.7C51.832 18.7075 51.94 18.7555 52.024 18.8515C52.108 18.9355 52.15 19.0435 52.15 19.1755V21.2275C52.15 22.2475 51.916 23.1295 51.448 23.8735C50.98 24.6055 50.314 25.1695 49.45 25.5655C48.598 25.9495 47.602 26.1415 46.462 26.1415ZM58.4451 26.1415C56.9571 26.1415 55.8111 25.7875 55.0071 25.0795C54.2031 24.3715 53.7651 23.3755 53.6931 22.0915C53.6811 21.9355 53.6751 21.6655 53.6751 21.2815C53.6751 20.8975 53.6811 20.6275 53.6931 20.4715C53.7651 19.1995 54.2151 18.2095 55.0431 17.5015C55.8711 16.7815 57.0051 16.4215 58.4451 16.4215C59.8971 16.4215 61.0371 16.7815 61.8651 17.5015C62.6931 18.2095 63.1431 19.1995 63.2151 20.4715C63.2271 20.6275 63.2331 20.8975 63.2331 21.2815C63.2331 21.6655 63.2271 21.9355 63.2151 22.0915C63.1431 23.3755 62.7051 24.3715 61.9011 25.0795C61.0971 25.7875 59.9451 26.1415 58.4451 26.1415ZM58.4451 23.9455C58.9731 23.9455 59.3631 23.7895 59.6151 23.4775C59.8671 23.1535 60.0111 22.6615 60.0471 22.0015C60.0591 21.8815 60.0651 21.6415 60.0651 21.2815C60.0651 20.9215 60.0591 20.6815 60.0471 20.5615C60.0111 19.9135 59.8611 19.4275 59.5971 19.1035C59.3451 18.7795 58.9611 18.6175 58.4451 18.6175C57.4491 18.6175 56.9211 19.2655 56.8611 20.5615L56.8431 21.2815L56.8611 22.0015C56.8851 22.6615 57.0231 23.1535 57.2751 23.4775C57.5391 23.7895 57.9291 23.9455 58.4451 23.9455Z" fill="black"/>
<path d="M70.385 26.1415C68.669 26.1415 67.325 25.7275 66.353 24.8995C65.393 24.0595 64.883 22.8475 64.823 21.2635C64.811 20.9395 64.805 20.4115 64.805 19.6795C64.805 18.9355 64.811 18.3955 64.823 18.0595C64.883 16.4995 65.405 15.2995 66.389 14.4595C67.373 13.6075 68.705 13.1815 70.385 13.1815C71.441 13.1815 72.389 13.3615 73.229 13.7215C74.069 14.0695 74.729 14.5735 75.209 15.2335C75.701 15.8815 75.953 16.6435 75.965 17.5195V17.5555C75.965 17.6515 75.923 17.7355 75.839 17.8075C75.767 17.8675 75.683 17.8975 75.587 17.8975H73.157C73.001 17.8975 72.881 17.8675 72.797 17.8075C72.713 17.7355 72.641 17.6095 72.581 17.4295C72.413 16.8175 72.149 16.3915 71.789 16.1515C71.429 15.8995 70.955 15.7735 70.367 15.7735C68.951 15.7735 68.219 16.5655 68.171 18.1495C68.159 18.4735 68.153 18.9715 68.153 19.6435C68.153 20.3155 68.159 20.8255 68.171 21.1735C68.219 22.7575 68.951 23.5495 70.367 23.5495C70.955 23.5495 71.435 23.4235 71.807 23.1715C72.179 22.9075 72.437 22.4815 72.581 21.8935C72.629 21.7135 72.695 21.5935 72.779 21.5335C72.863 21.4615 72.989 21.4255 73.157 21.4255H75.587C75.695 21.4255 75.785 21.4615 75.857 21.5335C75.941 21.6055 75.977 21.6955 75.965 21.8035C75.953 22.6795 75.701 23.4475 75.209 24.1075C74.729 24.7555 74.069 25.2595 73.229 25.6195C72.389 25.9675 71.441 26.1415 70.385 26.1415ZM82.0877 26.1415C80.5997 26.1415 79.4537 25.7875 78.6497 25.0795C77.8457 24.3715 77.4077 23.3755 77.3357 22.0915C77.3237 21.9355 77.3177 21.6655 77.3177 21.2815C77.3177 20.8975 77.3237 20.6275 77.3357 20.4715C77.4077 19.1995 77.8577 18.2095 78.6857 17.5015C79.5137 16.7815 80.6477 16.4215 82.0877 16.4215C83.5397 16.4215 84.6797 16.7815 85.5077 17.5015C86.3357 18.2095 86.7857 19.1995 86.8577 20.4715C86.8697 20.6275 86.8757 20.8975 86.8757 21.2815C86.8757 21.6655 86.8697 21.9355 86.8577 22.0915C86.7857 23.3755 86.3477 24.3715 85.5437 25.0795C84.7397 25.7875 83.5877 26.1415 82.0877 26.1415ZM82.0877 23.9455C82.6157 23.9455 83.0057 23.7895 83.2577 23.4775C83.5097 23.1535 83.6537 22.6615 83.6897 22.0015C83.7017 21.8815 83.7077 21.6415 83.7077 21.2815C83.7077 20.9215 83.7017 20.6815 83.6897 20.5615C83.6537 19.9135 83.5037 19.4275 83.2397 19.1035C82.9877 18.7795 82.6037 18.6175 82.0877 18.6175C81.0917 18.6175 80.5637 19.2655 80.5037 20.5615L80.4857 21.2815L80.5037 22.0015C80.5277 22.6615 80.6657 23.1535 80.9177 23.4775C81.1817 23.7895 81.5717 23.9455 82.0877 23.9455ZM89.1136 25.9615C88.9816 25.9615 88.8736 25.9195 88.7896 25.8355C88.7056 25.7515 88.6636 25.6435 88.6636 25.5115V17.0515C88.6636 16.9195 88.7056 16.8115 88.7896 16.7275C88.8736 16.6435 88.9816 16.6015 89.1136 16.6015H91.1836C91.3156 16.6015 91.4236 16.6495 91.5076 16.7455C91.6036 16.8295 91.6516 16.9315 91.6516 17.0515V17.7715C92.3116 16.9915 93.1996 16.6015 94.3156 16.6015H95.1076C95.2396 16.6015 95.3476 16.6435 95.4316 16.7275C95.5156 16.8115 95.5576 16.9195 95.5576 17.0515V18.9055C95.5576 19.0255 95.5156 19.1335 95.4316 19.2295C95.3476 19.3135 95.2396 19.3555 95.1076 19.3555H93.3616C92.8696 19.3555 92.4856 19.4935 92.2096 19.7695C91.9456 20.0335 91.8136 20.4115 91.8136 20.9035V25.5115C91.8136 25.6435 91.7656 25.7515 91.6696 25.8355C91.5856 25.9195 91.4776 25.9615 91.3456 25.9615H89.1136ZM101.178 26.1415C99.6895 26.1415 98.5435 25.7875 97.7395 25.0795C96.9355 24.3715 96.4975 23.3755 96.4255 22.0915C96.4135 21.9355 96.4075 21.6655 96.4075 21.2815C96.4075 20.8975 96.4135 20.6275 96.4255 20.4715C96.4975 19.1995 96.9475 18.2095 97.7755 17.5015C98.6035 16.7815 99.7375 16.4215 101.178 16.4215C102.63 16.4215 103.77 16.7815 104.598 17.5015C105.426 18.2095 105.876 19.1995 105.948 20.4715C105.96 20.6275 105.966 20.8975 105.966 21.2815C105.966 21.6655 105.96 21.9355 105.948 22.0915C105.876 23.3755 105.438 24.3715 104.634 25.0795C103.83 25.7875 102.678 26.1415 101.178 26.1415ZM101.178 23.9455C101.706 23.9455 102.096 23.7895 102.348 23.4775C102.6 23.1535 102.744 22.6615 102.78 22.0015C102.792 21.8815 102.798 21.6415 102.798 21.2815C102.798 20.9215 102.792 20.6815 102.78 20.5615C102.744 19.9135 102.594 19.4275 102.33 19.1035C102.078 18.7795 101.694 18.6175 101.178 18.6175C100.182 18.6175 99.6535 19.2655 99.5935 20.5615L99.5755 21.2815L99.5935 22.0015C99.6175 22.6615 99.7555 23.1535 100.008 23.4775C100.272 23.7895 100.662 23.9455 101.178 23.9455ZM108.203 25.9615C108.071 25.9615 107.963 25.9195 107.879 25.8355C107.795 25.7515 107.753 25.6435 107.753 25.5115V17.0515C107.753 16.9195 107.795 16.8115 107.879 16.7275C107.963 16.6435 108.071 16.6015 108.203 16.6015H110.273C110.405 16.6015 110.513 16.6435 110.597 16.7275C110.693 16.8115 110.741 16.9195 110.741 17.0515V17.7355C111.065 17.3395 111.479 17.0215 111.983 16.7815C112.499 16.5415 113.081 16.4215 113.729 16.4215C114.785 16.4215 115.643 16.7815 116.303 17.5015C116.963 18.2095 117.293 19.2055 117.293 20.4895V25.5115C117.293 25.6315 117.251 25.7395 117.167 25.8355C117.083 25.9195 116.975 25.9615 116.843 25.9615H114.575C114.455 25.9615 114.347 25.9195 114.251 25.8355C114.167 25.7395 114.125 25.6315 114.125 25.5115V20.5975C114.125 20.0335 113.987 19.6015 113.711 19.3015C113.435 18.9895 113.039 18.8335 112.523 18.8335C112.019 18.8335 111.623 18.9895 111.335 19.3015C111.047 19.6015 110.903 20.0335 110.903 20.5975V25.5115C110.903 25.6315 110.861 25.7395 110.777 25.8355C110.693 25.9195 110.585 25.9615 110.453 25.9615H108.203ZM122.128 26.1415C121.492 26.1415 120.91 26.0215 120.382 25.7815C119.866 25.5295 119.458 25.1935 119.158 24.7735C118.87 24.3415 118.726 23.8675 118.726 23.3515C118.726 22.5235 119.062 21.8575 119.734 21.3535C120.418 20.8495 121.354 20.5015 122.542 20.3095L124.792 19.9675V19.7155C124.792 19.2595 124.696 18.9235 124.504 18.7075C124.312 18.4915 123.988 18.3835 123.532 18.3835C123.256 18.3835 123.028 18.4315 122.848 18.5275C122.668 18.6235 122.482 18.7555 122.29 18.9235C122.122 19.0675 121.996 19.1635 121.912 19.2115C121.876 19.3075 121.81 19.3555 121.714 19.3555H119.752C119.632 19.3555 119.53 19.3195 119.446 19.2475C119.374 19.1635 119.344 19.0675 119.356 18.9595C119.368 18.6355 119.524 18.2755 119.824 17.8795C120.136 17.4835 120.604 17.1415 121.228 16.8535C121.864 16.5655 122.644 16.4215 123.568 16.4215C125.044 16.4215 126.136 16.7515 126.844 17.4115C127.552 18.0595 127.906 18.9355 127.906 20.0395V25.5115C127.906 25.6315 127.864 25.7395 127.78 25.8355C127.696 25.9195 127.588 25.9615 127.456 25.9615H125.368C125.248 25.9615 125.14 25.9195 125.044 25.8355C124.96 25.7395 124.918 25.6315 124.918 25.5115V24.8815C124.654 25.2535 124.282 25.5595 123.802 25.7995C123.334 26.0275 122.776 26.1415 122.128 26.1415ZM122.974 24.0895C123.526 24.0895 123.97 23.9095 124.306 23.5495C124.654 23.1895 124.828 22.6615 124.828 21.9655V21.7135L123.298 21.9835C122.218 22.1755 121.678 22.5535 121.678 23.1175C121.678 23.4175 121.804 23.6575 122.056 23.8375C122.308 24.0055 122.614 24.0895 122.974 24.0895Z" fill="#EC5863"/>
<path d="M14.2208 4.98869C15.6455 4.48917 17.2113 5.16285 17.7174 6.49273C18.1048 7.51091 17.7581 8.61769 16.9363 9.30529L17.3804 10.5163L18.0869 11.3316C18.2482 11.5182 18.4928 11.6074 18.738 11.5772C19.3991 11.4959 20.056 11.4928 20.6993 11.5604C20.9173 11.5836 21.1342 11.5116 21.2907 11.3595L21.8005 10.8661L22.1764 9.77185C21.8566 9.33293 21.7483 8.75165 21.9379 8.19933C22.2597 7.26306 23.3107 6.77916 24.2454 7.16256C25.0506 7.49245 25.4887 8.38808 25.253 9.22153C25.1032 9.75239 24.7241 10.15 24.2576 10.3468L23.8415 11.5594L23.9364 12.2276C23.969 12.4573 24.1054 12.6579 24.3047 12.7782C24.9746 13.1847 25.5899 13.6817 26.1301 14.2562C26.3116 14.4496 26.5824 14.5325 26.8427 14.4801L28.1825 14.2111L29.6961 13.3717C29.7039 12.6274 30.1017 11.9079 30.8019 11.5195C31.8606 10.9326 33.2014 11.327 33.7655 12.4024C34.2748 13.3725 33.9551 14.592 33.0327 15.1892C32.3124 15.6547 31.4335 15.6377 30.7551 15.2402L29.2325 16.084L28.3823 16.9871C28.1541 17.2294 28.0728 17.572 28.1599 17.8928C28.1604 17.8947 28.1607 17.896 28.1612 17.8979C28.3102 18.4507 28.4006 19.0063 28.438 19.557C28.4597 19.8851 28.6454 20.1803 28.9362 20.3371L30.0459 20.9353L32.2454 21.35C32.6331 21.0124 33.1672 20.8491 33.713 20.9515C34.6915 21.1363 35.3215 22.1048 35.0708 23.0797C34.8551 23.9145 34.0325 24.4703 33.1723 24.3609C32.5857 24.2863 32.1121 23.9338 31.8578 23.4598L29.6441 23.0427L28.2787 23.2089C28.027 23.24 27.8072 23.3975 27.7046 23.628C27.296 24.5379 26.7323 25.3748 26.0363 26.0973C25.8634 26.2768 25.7985 26.5338 25.8613 26.7744L26.2006 28.0843L27.0384 29.3942C27.9599 29.2563 28.9188 29.6536 29.4508 30.4856C30.1659 31.6034 29.8415 33.0834 28.7285 33.8046C27.6161 34.5257 26.1023 34.2119 25.3732 33.1081C24.8627 32.3353 24.8571 31.382 25.2709 30.6257L24.3815 29.2354L23.288 28.3384C23.1261 28.2048 22.9054 28.1695 22.7078 28.2397C22.4885 28.3178 22.2649 28.3876 22.0362 28.4485C20.7935 28.7796 19.5406 28.8223 18.3489 28.6198C18.1742 28.5905 17.9955 28.6402 17.8619 28.7557L17.2751 29.2642L16.8386 30.336C17.1339 30.7923 17.2093 31.3783 16.9894 31.919C16.6156 32.8366 15.5392 33.2616 14.6276 32.8274C13.8425 32.4535 13.4548 31.535 13.7366 30.7157C13.916 30.1939 14.3158 29.8178 14.7928 29.6473L15.2763 28.4594L15.1865 27.4161C14.3146 26.8717 13.5388 26.1731 12.9044 25.3474L11.4132 25.4942L10.0175 26.1823C10.0266 27.1158 9.54482 28.0039 8.69918 28.4338C7.50426 29.0407 6.03648 28.5034 5.42117 27.2331C4.80604 25.9634 5.27521 24.4421 6.47012 23.8352C7.36433 23.3809 8.41073 23.5673 9.13879 24.2224L10.455 23.573L11.3685 22.5962C11.4282 22.5323 11.4503 22.4424 11.4276 22.3584L11.4273 22.3571C11.0051 20.7902 11.0482 19.2063 11.4718 17.7506C11.4945 17.6707 11.4774 17.5846 11.4235 17.521L10.6355 16.5826L8.93758 15.6942C8.46992 15.8994 7.9155 15.8988 7.42793 15.6434C6.54711 15.182 6.22972 14.0748 6.75476 13.2157C7.2157 12.4624 8.19747 12.1764 8.99469 12.5626C9.51073 12.8124 9.84362 13.2797 9.94203 13.7966L11.6399 14.6849L12.8484 14.7983C12.9323 14.8064 13.0141 14.7711 13.0674 14.7061C13.6155 14.0312 14.268 13.4354 15.0092 12.9467C15.2126 12.8119 15.339 12.5886 15.3422 12.3453L15.3547 11.2518L14.881 9.96133C13.8541 9.88759 12.9251 9.26768 12.557 8.30058C12.0509 6.97071 12.7959 5.48757 14.2208 4.98869Z" fill="#EC5863"/>
<path d="M25.9898 18.4765C25.0729 15.0737 21.5559 13.0542 18.1342 13.966C14.7125 14.8778 12.6819 18.3756 13.5988 21.7785C14.5156 25.1813 18.0327 27.2008 21.4543 26.289C24.876 25.3772 26.9066 21.8794 25.9898 18.4765Z" fill="#F58A97"/>
<path d="M20.9484 24.4109C17.8476 25.2372 14.6687 23.6565 13.4173 20.8204C13.4527 21.1391 13.5128 21.4592 13.5988 21.7785C14.5156 25.1814 18.0326 27.2008 21.4543 26.289C24.8761 25.3771 26.9066 21.8795 25.9898 18.4765C25.9037 18.1573 25.7949 17.8502 25.6653 17.5566C26.0073 20.635 24.049 23.5847 20.9484 24.4109Z" fill="#F07281"/>
<path d="M11.324 33.496C11.0629 32.5269 10.0614 31.9518 9.08698 32.2115C8.11258 32.4711 7.53433 33.4672 7.79542 34.4362C8.05651 35.4053 9.05807 35.9804 10.0325 35.7207C11.0069 35.4611 11.5851 34.465 11.324 33.496Z" fill="#EB5569"/>
<path d="M34.1106 27.9379C33.9381 27.2979 33.2766 26.918 32.633 27.0895C31.9894 27.261 31.6074 27.9189 31.7799 28.559C31.9523 29.1991 32.6139 29.5789 33.2575 29.4074C33.9011 29.2359 34.283 28.578 34.1106 27.9379Z" fill="#EB5569"/>
<path d="M30.8429 6.00213C30.5889 5.05936 29.6145 4.49988 28.6665 4.75249C27.7185 5.0051 27.1559 5.97416 27.4099 6.91693C27.6639 7.8597 28.6383 8.41918 29.5863 8.16656C30.5343 7.91395 31.0969 6.9449 30.8429 6.00213Z" fill="#EB5569"/>
<path d="M20.1955 22.0477C19.9587 21.1687 19.0502 20.6471 18.1664 20.8826C17.2826 21.1181 16.7581 22.0216 16.9949 22.9005C17.2318 23.7795 18.1402 24.3011 19.024 24.0656C19.9078 23.8301 20.4323 22.9266 20.1955 22.0477Z" fill="#EB5569"/>
<path d="M24.3108 19.5818C24.1496 18.9835 23.5313 18.6285 22.9297 18.7888C22.3281 18.9491 21.9711 19.564 22.1323 20.1623C22.2935 20.7606 22.9119 21.1156 23.5134 20.9553C24.115 20.795 24.472 20.18 24.3108 19.5818Z" fill="#EB5569"/>
<path d="M19.9578 17.0961C19.8224 16.5937 19.3032 16.2956 18.7981 16.4302C18.2929 16.5648 17.9931 17.0812 18.1285 17.5835C18.2639 18.0859 18.7831 18.384 19.2882 18.2494C19.7934 18.1148 20.0932 17.5984 19.9578 17.0961Z" fill="#EB5569"/>
</svg>
